<?xml version="1.0" encoding="UTF-8"?>
<svg width="100pt" height="100pt" version="1.1" viewBox="0 0 100 100" xmlns="http://www.w3.org/2000/svg">
 <path d="m2.7656 64.5 18.723 6.8984c-0.058593 0.60156-0.097656 1.1953-0.11719 1.7891-0.15625 0.14844-0.3125 0.29688-0.46875 0.44922-3.957 3.957-6.1797 8.543-6.9492 10.328-0.26562 0.60938-0.13281 1.3125 0.33594 1.7812 0.3125 0.3125 0.72266 0.47656 1.1406 0.47656 0.21484 0 0.43359-0.042968 0.64453-0.13281 1.7891-0.77344 6.3789-2.9922 10.336-6.9492 0.34766-0.34766 0.67969-0.70312 1-1.0586 0.24609-0.007812 0.49219-0.015625 0.74609-0.03125l6.9062 18.742c0.32422 0.88281 1.1094 1.4844 2.0469 1.5742 0.078125 0.007812 0.15625 0.011718 0.23438 0.011718 0.84766 0 1.625-0.4375 2.0703-1.1719l4.1133-6.832c0.29688-0.49219 0.41016-1.0781 0.31641-1.6406l-2.4492-14.91c6.0234-3.1172 12.852-7.9492 20.566-14.543l13.305 31.172c0.33203 0.77734 1.0234 1.3477 1.8477 1.5312 0.1875 0.039063 0.375 0.0625 0.55859 0.0625 0.64453 0 1.2734-0.23828 1.7578-0.67578l7.0898-6.418c0.71484-0.64844 1.0156-1.6289 0.78516-2.5664l-3.2344-13.188 9.3828-9.3828c0.53516-0.53516 0.82812-1.2461 0.82812-2 0-0.75781-0.29688-1.4648-0.82812-2l-7.1992-7.1992c-1.0664-1.0703-2.9336-1.0703-4 0l-2.5938 2.5938-1.7383-7.0898 7.1602-6.8672c11.539-11.863 15.844-21.789 12.789-29.508-0.94531-2.3906-2.9023-4.2773-5.3711-5.1797-6.8047-2.4922-14.664-0.085937-24.027 7.3516-2.582 2.0508-5.1055 4.375-7.7109 7.1016l-4.5859 4.8008-7.832-1.9219 2.5938-2.5938c1.1016-1.1016 1.1016-2.8984 0-4l-7.1953-7.1992c-1.1055-1.1016-2.8984-1.1016-4 0l-9.3828 9.3828-13.18-3.2344c-0.93359-0.23047-1.918 0.070313-2.5664 0.78516l-6.418 7.0898c-0.56641 0.625-0.79687 1.4922-0.61719 2.3164 0.17969 0.82422 0.75391 1.5156 1.5312 1.8477l31.758 13.559-0.011719 0.011719c-6.9062 7.1016-11.98 13.875-15.23 20.285l-14.801-2.4297c-0.57031-0.09375-1.1523 0.019531-1.6445 0.31641l-6.832 4.1133c-0.80469 0.48437-1.2539 1.3672-1.1641 2.3047 0.09375 0.9375 0.69922 1.7227 1.582 2.0469zm14.293 18.484c1.0742-2.0664 2.8828-5.0195 5.5273-7.6602 2.6406-2.6406 5.5977-4.4531 7.6602-5.5273-1.0742 2.0664-2.8828 5.0234-5.5273 7.6641-2.6406 2.6406-5.5938 4.4492-7.6602 5.5234zm24.426 6.1602-4.1914 6.8242-6.6836-18.227c2.6328-0.46875 5.4805-1.418 8.5469-2.832zm42.453-38.844c0.11328-0.11328 0.24609-0.12891 0.31641-0.12891 0.070313 0 0.20312 0.015625 0.31641 0.13281l7.1992 7.1992c0.11328 0.11328 0.13281 0.24609 0.13281 0.31641 0 0.070313-0.015625 0.20313-0.13281 0.31641l-8.3594 8.3594-3.0859-12.574zm1.0547 32.645c0.019531 0.085938-0.007813 0.17578-0.070313 0.23438l-7.0898 6.418c-0.078125 0.070313-0.16016 0.066406-0.21094 0.054688-0.054688-0.011719-0.12891-0.046875-0.16797-0.14062l-13.613-31.895 12.09-11.594zm-43.566-75.156c0.17578-0.17578 0.45703-0.17578 0.63281 0l7.1992 7.1992c0.17578 0.17578 0.17578 0.45703 0 0.63281l-3.6172 3.6133-12.578-3.0859zm-31.383 14.312c-0.09375-0.039062-0.125-0.11328-0.14062-0.16797-0.011719-0.054688-0.011719-0.13281 0.054687-0.21094l6.418-7.0859c0.046875-0.050781 0.10938-0.078125 0.17578-0.078125 0.019531 0 0.039063 0 0.058594 0.007812l37.668 9.2422-11.652 12.199zm32.531 17.414 19.914-20.852c2.5273-2.6484 4.9688-4.8984 7.4688-6.8789 6.5508-5.2031 12.211-7.7773 17.16-7.7773 1.5938 0 3.1133 0.26563 4.5664 0.79688 1.8281 0.67187 3.2773 2.0625 3.9727 3.8203 2.6758 6.7656-1.457 15.84-12.254 26.941l-21.637 20.746c-13.266 11.543-24.07 17.957-32.254 19.176 2.0508-2.8125 3.3008-5.4297 3.8398-6.6836 0.26172-0.61328 0.12891-1.3125-0.34375-1.7812-0.47266-0.46875-1.1719-0.60547-1.7812-0.33984-1.3398 0.57812-4.25 1.9727-7.2891 4.3008 1.1523-9.3477 7.3867-19.906 18.637-31.469zm-32.133 18.555 14.121 2.3164c-1.3125 2.9492-2.2266 5.8164-2.7344 8.5938l-18.25-6.793z"/>
 <path d="m73.332 17.602c4.4219 1.2852 7.8242 4.6914 9.1094 9.1094 0.15234 0.51953 0.62891 0.85937 1.1406 0.85937 0.10938 0 0.22266-0.015624 0.33203-0.046874l4.9727-1.4453c0.63281-0.18359 0.99609-0.84375 0.8125-1.4766-2.0078-6.9219-7.3398-12.25-14.262-14.262-0.62891-0.18359-1.293 0.17969-1.4766 0.8125l-1.4453 4.9727c-0.17578 0.63281 0.1875 1.293 0.81641 1.4766zm2.5781-4.6055c5.207 1.875 9.2617 5.9297 11.137 11.137l-2.6914 0.78125c-1.5977-4.2852-4.9414-7.6289-9.2266-9.2266z"/>
</svg>
