<?xml version="1.0" encoding="UTF-8"?>
<svg width="100pt" height="100pt" version="1.1" viewBox="0 0 100 100" xmlns="http://www.w3.org/2000/svg">
 <path d="m49.973 8.4375c4.043 0 7.6758 1.582 10.25 4.2188 2.6367 2.6367 4.2773 6.2695 4.2773 10.25 0 4.043-1.6406 7.6172-4.2773 10.25-2.5781 2.6367-6.2109 4.2773-10.25 4.2773-3.9844 0-7.6172-1.6406-10.25-4.2773-2.5781-2.6367-4.2188-6.2109-4.2188-10.25 0-3.9844 1.6406-7.6172 4.2188-10.25 2.6367-2.6367 6.2695-4.2188 10.25-4.2188zm13.121 36.379h-26.246v8.0859h26.246zm-27.77-3.1641h29.352c0.87891 0 1.582 0.70312 1.582 1.582v11.246c0 0.87891-0.70312 1.582-1.582 1.582h-29.352c-0.87891 0-1.582-0.70312-1.582-1.582v-11.246c0-0.87891 0.70312-1.582 1.582-1.582zm38.723 55.184h22.086v-50.73c0-1.4062-0.41016-2.5195-1.1133-3.3984-0.82031-0.9375-1.9336-1.582-3.1641-1.8164l-17.867-3.3398zm-3.1641-61.043v-0.17578-20.328l-20.855-11.949-20.914 11.949v20.328 0.17578l-0.058593 61.043h7.0312v-36.438c0-0.82031 0.70312-1.5234 1.5234-1.5234h24.719c0.87891 0 1.582 0.70312 1.582 1.5234v36.438h6.9727zm3.1055-1.4062 18.453 3.457c1.9336 0.35156 3.6914 1.3477 4.9805 2.8711 1.1133 1.4062 1.875 3.2227 1.875 5.3906v52.312c0 0.87891-0.70312 1.582-1.582 1.582h-95.426c-0.87891 0-1.582-0.70312-1.582-1.582v-52.312c0-2.168 0.70312-3.9844 1.875-5.3906 1.2305-1.5234 3.0469-2.5195 4.9219-2.8711l18.453-3.457 0.058594-19.977c0-0.58594 0.29297-1.1133 0.76172-1.3477l22.496-12.828c0.52734-0.29297 1.1133-0.29297 1.582 0l22.379 12.828c0.52734 0.29297 0.82031 0.87891 0.76172 1.4648v19.859zm-22.438 27.594v34.855h9.2578v-34.855zm-3.1055 34.855v-34.855h-9.2578v34.855zm-22.496-59.285-17.867 3.3398c-1.2305 0.23438-2.3438 0.87891-3.1055 1.8164-0.70312 0.87891-1.1719 1.9922-1.1719 3.3984v50.73h22.145zm-4.043 12.477h-14v3.3984h14zm-15.582-3.1641h17.105c0.87891 0 1.582 0.70312 1.582 1.582v6.5625c0 0.87891-0.70312 1.582-1.582 1.582h-17.105c-0.82031 0-1.5234-0.70312-1.5234-1.582v-6.5625c0-0.87891 0.70312-1.582 1.5234-1.582zm15.582 15.523h-14v3.457h14zm-15.582-3.1055h17.105c0.87891 0 1.582 0.70312 1.582 1.5234v6.5625c0 0.87891-0.70312 1.582-1.582 1.582h-17.105c-0.82031 0-1.5234-0.70312-1.5234-1.582v-6.5625c0-0.82031 0.70312-1.5234 1.5234-1.5234zm15.582 15.523h-14v3.3984h14zm-15.582-3.1641h17.105c0.87891 0 1.582 0.70312 1.582 1.582v6.5625c0 0.87891-0.70312 1.5234-1.582 1.5234h-17.105c-0.82031 0-1.5234-0.64453-1.5234-1.5234v-6.5625c0-0.87891 0.70312-1.582 1.5234-1.582zm15.582 15.523h-14v3.457h14zm-15.582-3.1055h17.105c0.87891 0 1.582 0.70312 1.582 1.5234v6.5625c0 0.87891-0.70312 1.582-1.582 1.582h-17.105c-0.82031 0-1.5234-0.70312-1.5234-1.582v-6.5625c0-0.82031 0.70312-1.5234 1.5234-1.5234zm85.766-34.035h-14v3.3984h14zm-15.582-3.1641h17.105c0.87891 0 1.582 0.70312 1.582 1.582v6.5625c0 0.87891-0.70312 1.582-1.582 1.582h-17.105c-0.82031 0-1.5234-0.70313-1.5234-1.582v-6.5625c0-0.87891 0.70312-1.582 1.5234-1.582zm15.582 15.523h-14v3.457h14zm-15.582-3.1055h17.105c0.87891 0 1.582 0.70312 1.582 1.5234v6.5625c0 0.87891-0.70312 1.582-1.582 1.582h-17.105c-0.82031 0-1.5234-0.70312-1.5234-1.582v-6.5625c0-0.82031 0.70312-1.5234 1.5234-1.5234zm15.582 15.523h-14v3.3984h14zm-15.582-3.1641h17.105c0.87891 0 1.582 0.70312 1.582 1.582v6.5625c0 0.87891-0.70312 1.5234-1.582 1.5234h-17.105c-0.82031 0-1.5234-0.64453-1.5234-1.5234v-6.5625c0-0.87891 0.70312-1.582 1.5234-1.582zm15.582 15.523h-14v3.457h14zm-15.582-3.1055h17.105c0.87891 0 1.582 0.70312 1.582 1.5234v6.5625c0 0.87891-0.70312 1.582-1.582 1.582h-17.105c-0.82031 0-1.5234-0.70312-1.5234-1.582v-6.5625c0-0.82031 0.70312-1.5234 1.5234-1.5234zm-24.957-62.391h2.5195c0.87891 0 1.5234 0.70313 1.5234 1.582s-0.64453 1.582-1.5234 1.582h-4.1016c-0.82031 0-1.5234-0.70312-1.5234-1.582v-8.1445c0-0.87891 0.70313-1.582 1.5234-1.582 0.87891 0 1.582 0.70312 1.582 1.582zm6.5039-6.7969c-2.1094-2.0508-4.9219-3.3398-8.0859-3.3398-3.1055 0-5.9766 1.2891-8.0273 3.3398-2.0508 2.0508-3.3398 4.9219-3.3398 8.0273 0 3.1641 1.2891 5.9766 3.3398 8.0859 2.0508 2.0508 4.9219 3.2812 8.0273 3.2812 3.1641 0 5.9766-1.2305 8.0859-3.2812 2.0508-2.1094 3.2812-4.9219 3.2812-8.0859 0-3.1055-1.2305-5.9766-3.2812-8.0273z"/>
</svg>
