<?xml version="1.0" encoding="UTF-8"?>
<svg width="100pt" height="100pt" version="1.1" viewBox="0 0 100 100" xmlns="http://www.w3.org/2000/svg">
 <path d="m72.141 15.961c-4.4805-0.67969-9.2617-0.28906-13.77-0.21094-6.8906 0.12109-13.789 0.14844-20.648 0.76172-2.2383 0.19922-2.3203 3.4688 0 3.5391 9.9492 0.30859 20.371-1.4414 30.359-0.78906-5.6602 7.0781-11.48 14.09-16.711 21.469-0.71875 1.0195 0.25 2.4219 1.3906 2.4219 4.6484 0 9.3008-0.10156 13.941-0.21094-10.41 13.219-22.238 25.449-34.641 36.82 4.5703-9.3008 9.2891-18.602 14.738-27.391 1.3281-0.21875 1.3281-2.3516-0.070312-2.1992-5.5 0.57031-11.039 0.42188-16.559 0.75 5.2617-6.6484 11.82-12.219 17.648-18.352 0.55078-0.57812 0.19922-1.7695-0.69922-1.6914-4.3906 0.37109-8.7812 0.80859-13.18 1.0898-0.39844 0.03125-1.6406 0.35938-1.9883 0.12109-0.80078-0.55078 0.078125-2.1719 0.51953-3.4219 0.98828-2.8516 2.2305-5.6211 3.3086-8.4492 0.25-0.66016-0.78906-0.92188-1.0391-0.28906-0.92188 2.2695-6.7695 11.781-3.8398 13.512 1.1289 0.66016 4.4609-0.070312 5.6992-0.12109 2.6602-0.10156 5.3203-0.21875 7.9805-0.35156-6.2109 6.0117-12.781 11.641-17.871 18.699-0.48828 0.67969 0.16016 1.8086 0.98828 1.7305 5.8203-0.55078 11.699-0.37109 17.52-0.87109-6.1016 9.8906-11.52 20.23-16.781 30.57-0.46094 0.91016 0.62891 1.7383 1.3906 1.0703 14.59-12.672 29.031-26.531 41.031-41.73 0.76172-0.96094 0.35156-2.5586-1.0508-2.5508-4.6289 0.050781-9.25 0.078125-13.879 0.058593 5.4102-7.1602 11.34-13.969 17.02-20.891 0.78125-0.94922 0.69922-2.8789-0.82031-3.1094z"/>
</svg>
