<?xml version="1.0" encoding="UTF-8"?>
<svg width="100pt" height="100pt" version="1.1" viewBox="0 0 100 100" xmlns="http://www.w3.org/2000/svg">
 <path d="m78.473 65.973c0 2.7773-4.168 2.7773-4.168 0s4.168-2.7773 4.168 0"/>
 <path d="m55.555 86.805h-34.723c-1.918 0-3.4727-1.5547-3.4727-3.4727v-45.137h65.973c2.3164-0.003906 4.5078-1.0586 5.957-2.8672 1.4453-1.8086 1.9961-4.1797 1.4883-6.4375l-3.082-13.891c-0.76172-3.5-3.8633-5.9883-7.4453-5.9727h-60.5c-3.5781-0.003906-6.6758 2.4805-7.4453 5.9727l-3.082 13.891c-0.51172 2.2617 0.039063 4.6367 1.5 6.4414 0.66406 0.84375 1.5078 1.5273 2.4727 2v46c0 4.2188 3.418 7.6406 7.6367 7.6406h34.723c1.1523 0 2.0859-0.93359 2.0859-2.082 0-1.1523-0.93359-2.0859-2.0859-2.0859zm-42.277-57 3.082-13.891v0.003907c0.32031-1.6172 1.7422-2.7852 3.3906-2.7773h60.5c1.6484-0.007813 3.0703 1.1602 3.3906 2.7773l3.082 13.891v-0.003906c0.17969 0.98437-0.074218 1.9961-0.69531 2.7773-0.66406 0.85547-1.6953 1.3398-2.7773 1.3086h-66.582c-1.082 0.03125-2.1133-0.45312-2.7773-1.3086-0.59375-0.79297-0.81641-1.8047-0.61328-2.7773z"/>
 <path d="m76.391 50.695c-3.8672 0.007813-7.5742 1.5469-10.305 4.2773-2.7344 2.7344-4.2734 6.4414-4.2812 10.305-0.066407 10.199 5.0078 19.742 13.5 25.391 0.32812 0.19531 0.70312 0.30078 1.0859 0.30469 0.37109-0.003906 0.73828-0.10938 1.0547-0.30469 8.5-5.6406 13.59-15.188 13.527-25.391-0.007812-3.8633-1.5469-7.5703-4.2812-10.305-2.7305-2.7305-6.4375-4.2695-10.301-4.2773zm0 35.668v-0.003906c-6.5703-5.0195-10.422-12.816-10.418-21.082 0-5.7539 4.6641-10.418 10.418-10.418 5.75 0 10.414 4.6641 10.414 10.418 0.054687 8.2812-3.8086 16.098-10.414 21.082z"/>
</svg>
