<?xml version="1.0" encoding="UTF-8"?>
<svg width="100pt" height="100pt" version="1.1" viewBox="0 0 100 100" xmlns="http://www.w3.org/2000/svg">
 <path d="m85.789 25.988s-0.14062-0.039062-0.33984-0.070312-0.42969-0.039063-0.42969-0.039063h-70.051s-0.21875 0-0.41016 0.03125-0.33984 0.070313-0.35938 0.078125c-1.2695 0.33984-2.2109 1.4883-2.2109 2.8594v42.309c0 1.3711 0.94141 2.5195 2.1992 2.8594 0.050781 0.019531 0.10156 0.039063 0.16016 0.050781 0.03125 0 0.058594 0 0.089844 0.011719 0.12891 0.03125 0.26172 0.050781 0.39062 0.050781h70.32c0.12891 0 0.26172-0.03125 0.39062-0.050781 0.03125 0 0.058594 0 0.089844-0.011719 0.050782-0.011718 0.10156-0.03125 0.16016-0.050781 1.2695-0.33984 2.1992-1.4883 2.1992-2.8594v-42.305c0-1.3711-0.94141-2.5195-2.2109-2.8594zm-12.828 24.012 12.922-19.559v39.121l-12.922-19.559zm12.012-22.02-16.68 25.262c-0.51953 0.78125-1.3906 1.25-2.3203 1.25h-31.949c-0.94141 0-1.8008-0.46875-2.3203-1.25l-16.684-25.262h69.969zm-70.863 41.578v-39.117l12.922 19.559zm0.91016 2.4609 13.281-20.102 1.6406 2.4883c0.91016 1.3711 2.4414 2.1992 4.0781 2.1992h31.949c1.6484 0 3.1719-0.82031 4.0781-2.1992l1.6406-2.4883 13.281 20.102z"/>
</svg>
