<?xml version="1.0" encoding="UTF-8"?>
<svg width="100pt" height="100pt" version="1.1" viewBox="0 0 100 100" xmlns="http://www.w3.org/2000/svg">
 <path d="m90.777 28.891-3.082-13.891c-0.76172-3.5-3.8633-5.9883-7.4453-5.9727h-60.5c-3.5703 0.015625-6.6562 2.4922-7.4453 5.9727l-3.082 13.891c-0.52734 2.2617 0.027344 4.6445 1.5 6.4414 0.66406 0.84375 1.5078 1.5273 2.4727 2v46c0 4.2188 3.418 7.6406 7.6367 7.6406h58.336c2.0312 0.007813 3.9805-0.79297 5.418-2.2266s2.2461-3.3828 2.2461-5.4141v-46c0.94531-0.48828 1.7773-1.168 2.4453-2 1.4727-1.7969 2.0273-4.1797 1.5-6.4414zm-77.5 0.91797 3.082-13.891c0.33984-1.6055 1.75-2.7617 3.3906-2.7773h60.5c1.6484-0.007813 3.0703 1.1602 3.3906 2.7773l3.082 13.891v-0.003906c0.17969 0.98437-0.074218 1.9961-0.69531 2.7773-0.66406 0.85547-1.6953 1.3398-2.7773 1.3086h-66.582c-1.082 0.03125-2.1133-0.45312-2.7773-1.3086-0.59375-0.79297-0.81641-1.8047-0.61328-2.7773zm22.832 42.941c-4.3398-0.35547-7.5898-4.125-7.3047-8.4727-0.28516-4.3438 2.9648-8.1172 7.3047-8.4727 4.3438 0.35547 7.5938 4.1289 7.3086 8.4727 0.28516 4.3477-2.9648 8.1172-7.3086 8.4727zm42.973 14.055h-11.723v-10.164c4.6836-1.0469 8.0312-5.1758 8.0859-9.9727v-11.809c0-1.1484-0.93359-2.082-2.0859-2.082-1.1484 0-2.082 0.93359-2.082 2.082v11.809c0 3.3906-2.7461 6.1367-6.1367 6.1367s-6.1406-2.7461-6.1406-6.1367v-11.809c0-1.1484-0.93359-2.082-2.082-2.082-1.1523 0-2.0859 0.93359-2.0859 2.082v11.809c0.003907 4.9297 3.4961 9.168 8.3359 10.109v10.109h-25v-10.191c5.6562-1.4219 9.5625-6.5859 9.3867-12.418 0.30078-6.6406-4.8086-12.281-11.445-12.637-6.6445 0.34375-11.77 5.9883-11.469 12.637-0.1875 5.8359 3.7227 11.008 9.3867 12.418v10.109h-13.195c-1.918 0-3.4727-1.5547-3.4727-3.4727v-45.137h65.309v45.137c-0.015625 1.9141-1.5625 3.457-3.4727 3.4727z"/>
</svg>
