<?xml version="1.0" encoding="UTF-8"?>
<svg width="100pt" height="100pt" version="1.1" viewBox="0 0 100 100" xmlns="http://www.w3.org/2000/svg">
 <path d="m77.125 56.637c6.3711-7.2461 11.168-16.426 14.262-27.277 3.3086-11.641 3.6797-21.891 3.6836-25.758 0-0.71094-0.29687-1.3789-0.81641-1.8359-0.51953-0.45703-1.2227-0.66406-1.9219-0.57031-1.4375 0.1875-3.7578 0.54297-6.6836 1.1641-4.8789 1.0352-11.438 2.8125-18.387 5.7969-10.363 4.4531-18.852 10.391-25.223 17.641-1.0938 1.2422-2.1211 2.5625-3.1172 3.9141-5.2305 0.003906-10.434 1.2617-15.133 3.7852-10.578 5.6719-17.445 15.422-18.844 26.742-0.0625 0.49219 0.19141 0.98438 0.62891 1.2188 0.42969 0.23047 0.97656 0.17188 1.3516-0.14844 5.6211-4.7969 12.82-6.8281 19.805-6.1562l-3.7109 11.723c-0.14062 0.44922-0.003906 0.94141 0.34766 1.2539l1.543 1.3594c-3.6133 1.7109-6.6133 3.9023-8.9258 6.5352-2.5508 2.9023-4.4727 6.5703-5.707 10.902-1.3125 4.6211-1.4609 8.6914-1.4609 10.227 0 0.48438 0.20312 0.94531 0.56641 1.2617 0.30469 0.26563 0.69531 0.41406 1.1016 0.41406 0.074219 0 0.14844-0.003906 0.22266-0.015625 1.5234-0.19922 5.543-0.86719 9.957-2.7656 4.1367-1.7773 7.5273-4.1523 10.082-7.0586 2.3164-2.6328 4.1016-5.8906 5.332-9.6914l1.5469 1.3594c0.22266 0.19531 0.50391 0.29688 0.78516 0.29688 0.16797 0 0.33984-0.035156 0.5-0.10938l11.145-5.1836c1.5664 6.8516 0.47266 14.266-3.5781 20.461-0.26953 0.41016-0.25781 0.94531 0.027344 1.3438 0.22656 0.31641 0.58984 0.49609 0.96875 0.49609 0.097656 0 0.19531-0.011719 0.29688-0.039063 6.7109-1.7188 12.688-5.3906 17.281-10.617 6.5-7.3945 9.457-17.16 8.3203-26.816 1.3086-1.2422 2.582-2.5156 3.7539-3.8516zm15.559-52.281c0 0.11328-0.003906 0.24609-0.007813 0.36719-0.003906 0.17188-0.003906 0.33594-0.011719 0.52344-0.003906 0.14453-0.007812 0.30859-0.015624 0.46094-0.003907 0.18359-0.011719 0.36328-0.019532 0.55859-0.007812 0.16406-0.015625 0.34375-0.023437 0.51953-0.007813 0.20312-0.015625 0.40625-0.027344 0.62109-0.007813 0.18359-0.019531 0.37891-0.03125 0.57031-0.011719 0.22656-0.023437 0.44922-0.039063 0.68359-0.011718 0.20312-0.027343 0.41406-0.042968 0.62109-0.015625 0.24219-0.035156 0.48438-0.054688 0.73438-0.015625 0.21875-0.039062 0.44922-0.058594 0.67969-0.023437 0.25781-0.042968 0.51563-0.070312 0.78125-0.023438 0.23828-0.046875 0.48438-0.074219 0.73047-0.027343 0.26953-0.054687 0.54297-0.085937 0.82422-0.027344 0.25391-0.058594 0.51562-0.089844 0.77734-0.035156 0.28516-0.066406 0.57031-0.10547 0.86328-0.035156 0.26562-0.070312 0.53906-0.10547 0.8125-0.039062 0.30078-0.082031 0.60547-0.125 0.91406-0.039062 0.27734-0.082031 0.55859-0.125 0.84375-0.046874 0.3125-0.097656 0.62891-0.14844 0.94922-0.046875 0.28906-0.097656 0.58203-0.14844 0.875-0.054688 0.32812-0.11719 0.65625-0.17578 0.99219-0.054687 0.29688-0.10938 0.59375-0.16797 0.89453-0.066407 0.33984-0.13281 0.68359-0.20313 1.0312-0.0625 0.30469-0.125 0.60938-0.19141 0.91406-0.074218 0.35156-0.15625 0.71094-0.23438 1.0664-0.070312 0.30859-0.14062 0.61719-0.21484 0.92578-0.085938 0.36328-0.17969 0.73047-0.26953 1.0977-0.078125 0.3125-0.15625 0.625-0.23828 0.9375-0.03125 0.125-0.070313 0.25-0.10156 0.37891-7.8594-4.1719-14.551-10.059-19.918-17.52 0.11719-0.046875 0.23438-0.097656 0.34766-0.14453 0.30469-0.125 0.60938-0.24219 0.91406-0.36328 0.35156-0.13672 0.69922-0.27344 1.0469-0.40625 0.30078-0.11328 0.60156-0.22266 0.90234-0.33594 0.33984-0.125 0.67969-0.25 1.0195-0.36719 0.29688-0.10547 0.58984-0.20703 0.88672-0.30859 0.33594-0.11328 0.66797-0.22656 1-0.33594 0.28516-0.09375 0.57031-0.1875 0.85156-0.27734 0.32812-0.10547 0.65625-0.20703 0.97656-0.30859 0.27734-0.085938 0.55469-0.16797 0.82812-0.25 0.32031-0.09375 0.63281-0.1875 0.94922-0.27734 0.26562-0.078125 0.53125-0.15234 0.79297-0.22266 0.3125-0.085938 0.62109-0.17188 0.92578-0.25391 0.25391-0.066406 0.50391-0.13672 0.75-0.19922 0.30469-0.078125 0.60156-0.15234 0.89453-0.22656 0.23828-0.058593 0.47266-0.11719 0.70703-0.17578 0.29688-0.070312 0.58594-0.14062 0.875-0.20703 0.21484-0.050781 0.43359-0.10156 0.64453-0.14844 0.28906-0.066406 0.57031-0.125 0.85156-0.1875 0.19531-0.042968 0.39453-0.085937 0.58594-0.125 0.27734-0.058593 0.54688-0.10937 0.8125-0.16406 0.17578-0.035156 0.35938-0.070312 0.52734-0.10547 0.26953-0.050781 0.52734-0.097656 0.78125-0.14453 0.15234-0.027344 0.30859-0.058594 0.45312-0.082031 0.26172-0.046875 0.50781-0.085938 0.75391-0.12891 0.125-0.019531 0.25781-0.042968 0.38281-0.0625 0.24609-0.039062 0.47266-0.074218 0.70312-0.10937 0.10547-0.015626 0.21484-0.035157 0.31641-0.046876 0.24609-0.035156 0.47266-0.066406 0.69141-0.097656 0.066406-0.007812 0.13672-0.019531 0.19922-0.027344 0.27734-0.039062 0.53516-0.070312 0.76562-0.097656-0.007812 0.23047-0.007812 0.48047-0.011718 0.75781zm-48.859 23.016c5.9609-6.7812 13.879-12.367 23.516-16.633 5.7344 8.1016 12.949 14.441 21.473 18.879-3 10.105-7.5234 18.672-13.477 25.449-6.293 7.1602-14.738 12.992-25.109 17.34l-20.371-17.902c2.9766-10.844 7.6719-19.969 13.969-27.133zm-19.676 25.258c-5.7266 0-11.453 1.6719-16.355 5.0195 2.0273-9.3086 8.1445-17.242 17.117-22.055 3.832-2.0547 8.0273-3.2031 12.281-3.4531-3.9766 5.9766-7.0898 12.926-9.3242 20.734-1.2344-0.15625-2.4766-0.24609-3.7188-0.24609zm4.8008 34.789c-2.3203 2.6406-5.4258 4.8086-9.2344 6.4414-3.5 1.5039-6.7344 2.1836-8.5078 2.4688 0.054688-1.7969 0.31641-5.0859 1.3555-8.7539 1.1367-3.9883 2.8867-7.3477 5.2031-9.9844 2.293-2.6094 5.3516-4.7539 9.0938-6.3828l2.7266 2.3984-4.6016 5.2344c-0.43359 0.49219-0.38672 1.2461 0.10938 1.6797 0.22656 0.19922 0.50781 0.29688 0.78516 0.29688 0.33203 0 0.66016-0.13672 0.89453-0.40625l4.6016-5.2344 2.7266 2.3945c-1.125 3.9297-2.8594 7.2383-5.1523 9.8477zm9.6562-9.0625-5.6484-4.9648 2.957-3.3672c0.43359-0.49219 0.38672-1.2461-0.10937-1.6797-0.49219-0.43359-1.2461-0.38672-1.6797 0.10938l-2.957 3.3672-5.6484-4.9648 3.2188-10.168 19.535 17.168zm24.652 7.3789c-3.6172 4.1172-8.1523 7.1953-13.242 9.0156 3.2891-6.4648 3.9141-13.824 2.1211-20.598 7.3047-3.168 13.676-7.0625 19.02-11.648 0.53125 8.4141-2.2383 16.789-7.8984 23.23z"/>
 <path d="m63.387 50.465c0.29688 0 0.59766-0.007813 0.89844-0.027344 6.168-0.39844 11.145-4.7891 12.676-11.188 0.51172-2.1367 0.36328-4.4453-0.41797-6.5039-2.3398-6.1484-7.8398-9.8594-14.008-9.4688-6.168 0.39844-11.145 4.7891-12.676 11.188-0.51172 2.1367-0.36328 4.4492 0.41797 6.5039 2.2266 5.8516 7.3086 9.4961 13.109 9.4961zm-11.211-15.445c1.5547-6.5078 6.4531-9.1055 10.512-9.3672 0.23438-0.015625 0.47266-0.023438 0.71484-0.023438 3.9375 0 8.6719 2.0703 10.914 7.9609 0.61328 1.6133 0.73047 3.4219 0.32812 5.1016-1.5547 6.5078-6.4531 9.1055-10.516 9.3672-4.0547 0.26562-9.25-1.6875-11.629-7.9375-0.60938-1.6133-0.72656-3.4219-0.32422-5.1016z"/>
</svg>
