<?xml version="1.0" encoding="UTF-8"?>
<svg width="100pt" height="100pt" version="1.1" viewBox="0 0 100 100" xmlns="http://www.w3.org/2000/svg">
 <path d="m50 88.32c-4.1016 0-7.4297-3.3281-7.4297-7.4297v-1.5l-14.309-8.2695-1.3008 0.75c-3.5508 2.0391-8.1016 0.82812-10.148-2.7109-2.0391-3.5586-0.82031-8.1094 2.7188-10.148l1.3086-0.75v-16.531l-1.3086-0.75c-3.5391-2.0508-4.7617-6.6016-2.7305-10.141 1.3281-2.3008 3.8008-3.7188 6.4414-3.7188 1.2812 0 2.5586 0.33984 3.6992 0.98828l1.3203 0.76172 14.301-8.2617v-1.5195c0-4.0898 3.3281-7.4219 7.4297-7.4219 1.9805 0 3.8398 0.76953 5.2383 2.1719 1.3984 1.3984 2.1797 3.2695 2.1797 5.25v1.5117l14.309 8.2617 1.3086-0.75c1.1484-0.64844 2.4297-1 3.7109-1 2.6406 0 5.1016 1.4219 6.4297 3.7188 2.0508 3.5391 0.83984 8.0898-2.7109 10.141l-1.3086 0.76172v16.531l1.3086 0.75c1.7109 0.98828 2.9414 2.5781 3.4609 4.5s0.25 3.9219-0.73828 5.6484c-2.0508 3.5391-6.6016 4.75-10.141 2.7109l-1.3008-0.75-14.32 8.2695v1.5c0 4.1016-3.3281 7.4297-7.4219 7.4297zm-21.738-21.512c0.35156 0 0.69141 0.089844 1 0.26953l16.309 9.4219c0.62109 0.35938 1 1.0195 1 1.7305v2.6602c0 1.8906 1.5391 3.4297 3.4297 3.4297s3.4219-1.5391 3.4219-3.4297v-2.6602c0-0.71094 0.37891-1.3789 1-1.7305l16.32-9.4219c0.62109-0.35938 1.3789-0.35938 2 0l2.3008 1.3281c1.6289 0.94141 3.7305 0.37891 4.6797-1.25 0.46094-0.80078 0.57812-1.7188 0.33984-2.6094-0.23828-0.87891-0.80078-1.6094-1.5898-2.0703l-2.3086-1.3281c-0.62109-0.35938-1-1.0195-1-1.7305v-18.84c0-0.71875 0.37891-1.3789 1-1.7305l2.3086-1.3281c0.78906-0.46094 1.3516-1.1992 1.5898-2.0781s0.10938-1.8008-0.33984-2.5898c-0.92188-1.5781-3.0391-2.1914-4.6914-1.25l-2.3008 1.3281c-0.62109 0.35937-1.3789 0.35937-2 0l-16.309-9.4102c-0.62109-0.35938-1-1.0195-1-1.7305v-2.6719c0-0.91016-0.35938-1.7695-1-2.4219-0.64062-0.64844-1.5117-1-2.4219-1-1.8906 0-3.4297 1.5312-3.4297 3.4219v2.6719c0 0.71094-0.37891 1.3789-1 1.7305l-16.301 9.4102c-0.62109 0.35937-1.3789 0.35937-2 0l-2.3086-1.3281c-0.53125-0.30078-1.1211-0.46094-1.7109-0.46094-1.2188 0-2.3594 0.66016-2.9805 1.7188-0.94141 1.6289-0.37109 3.7305 1.2617 4.6797l2.3086 1.3281c0.62109 0.35937 1 1.0195 1 1.7305v18.84c0 0.71875-0.37891 1.3789-1 1.7305l-2.3086 1.3281c-1.6289 0.94141-2.1914 3.0391-1.25 4.6797 0.94141 1.6289 3.0508 2.1914 4.6914 1.2383l2.3008-1.3281c0.30859-0.17969 0.66016-0.26953 1-0.26953z"/>
 <path d="m50 67.238c-9.5117 0-17.238-7.7383-17.238-17.238s7.7383-17.238 17.238-17.238 17.238 7.7383 17.238 17.238-7.7383 17.238-17.238 17.238zm0-30.477c-7.3008 0-13.238 5.9414-13.238 13.238 0 7.3008 5.9414 13.238 13.238 13.238 7.3008 0 13.238-5.9414 13.238-13.238 0-7.3008-5.9414-13.238-13.238-13.238z"/>
</svg>
