<?xml version="1.0" encoding="UTF-8"?>
<svg width="100pt" height="100pt" version="1.1" viewBox="0 0 100 100" xmlns="http://www.w3.org/2000/svg">
 <g>
  <path d="m43.664 87.312c2.3438 0.125 4.6875 0.1875 7.1172 0.1875 2.6484 0 5.3047-0.078125 7.9062-0.22656 17.875-1.0547 35.844-6.0234 35.844-14.617v-26.562c0.011719-0.10547 0.011719-0.21484 0-0.32031v-0.46094c0-4.375-4.6875-7.8125-11.719-10.312v-4.4141l8.5938-5.0156c0.48047-0.28125 0.77734-0.79297 0.77734-1.3516s-0.29688-1.0703-0.77734-1.3516l-9.375-5.4688c-0.48438-0.27734-1.0781-0.27734-1.5625 0-0.48438 0.27734-0.78125 0.79297-0.78125 1.3516v10.938 0.054688 4.2891c-7.8125-2.25-17.766-3.4531-27.555-3.5625h-2.7031c-10.453 0.10938-21.094 1.4688-29.117 4v-3.4375h0.054688l8.5938-5.4688c0.47266-0.28906 0.75781-0.80859 0.74609-1.3633-0.011719-0.55469-0.31641-1.0625-0.80078-1.332l-9.375-5.4688c-0.48438-0.27734-1.0781-0.27734-1.5625 0-0.48438 0.27734-0.78125 0.79297-0.78125 1.3516v16.828c-6.1797 2.4297-10.156 5.6875-10.156 9.7344v0.46094c-0.011719 0.10547-0.011719 0.21484 0 0.32031v26.562c0 8.75 18.992 13.727 36.633 14.656zm39.148-65.844 4.6875 2.75-4.6875 2.75zm-62.5 0 4.8125 2.8047-4.8125 3.0703zm36.719 62.75-1.5625 0.070312h-0.95312c-2.2734 0.0625-4.5625 0.070313-6.8047 0h-0.95313l-1.4453-0.039062v-9.25c0-2.5898 2.0977-4.6875 4.6875-4.6875h2.3438c2.5898 0 4.6875 2.0977 4.6875 4.6875zm34.375-11.562c0 4.5703-11.656 9.9766-31.25 11.383v-9.0391c0-2.0703-0.82422-4.0586-2.2891-5.5234-1.4648-1.4648-3.4531-2.2891-5.5234-2.2891h-2.3438c-4.3164 0-7.8125 3.4961-7.8125 7.8125v9.0938c-19.828-1.2812-32.031-6.8672-32.031-11.438v-21.539c6.3281 5.4688 21.344 8.5 36.516 8.9688h2.2969l1.8125 0.070312h4.1328c15.172-0.46875 30.188-3.5156 36.516-8.9688zm-14.891-32.031c0 2.8672-10.023 7.0312-25.734 7.0312s-25.734-4.1641-25.734-7.0312 10.023-7.0312 25.734-7.0312 25.734 4.1641 25.734 7.0312zm-52.641-3.9062c-1.1758 0.96484-1.8867 2.3867-1.9531 3.9062 0 6.6641 14.516 10.156 28.859 10.156s28.859-3.4922 28.859-10.156c-0.066406-1.5195-0.77734-2.9414-1.9531-3.9062 8.5938 2.3047 13.719 5.5547 13.719 8.5938-0.003906 0.15625-0.019531 0.3125-0.046875 0.46875-0.92969 5.0781-15.508 10.492-36.305 11.148h-2.0938l-2.1797 0.10156h-4.2656c-20.797-0.66406-35.375-6.0703-36.305-11.148-0.039063-0.1875-0.054688-0.37891-0.054688-0.57031 0-3.0625 5.1094-6.3203 13.719-8.5938z"/>
  <path d="m35.602 44.469c4.9453-1.3945 10.043-2.1602 15.18-2.2812 7.5234 0 16.719 2.2734 16.812 2.2969 0.83594 0.21484 1.6914-0.28906 1.9062-1.125s-0.28906-1.6914-1.125-1.9062c-0.40625-0.10156-9.6797-2.3906-17.594-2.3906-5.4375 0.10938-10.84 0.91797-16.07 2.4062-0.80859 0.26172-1.2578 1.1211-1.0117 1.9336 0.24219 0.8125 1.0898 1.2852 1.9102 1.0586z"/>
 </g>
</svg>
