<?xml version="1.0" encoding="UTF-8"?>
<svg width="100pt" height="100pt" version="1.1" viewBox="0 0 100 100" xmlns="http://www.w3.org/2000/svg">
 <path d="m50.043 44.594c0 0.26953-0.23047 0.49219-0.51562 0.49219s-0.51562-0.21875-0.51562-0.49219c0-0.26953 0.23047-0.49219 0.51562-0.49219s0.51562 0.21875 0.51562 0.49219z"/>
 <path d="m40.879 44.59c0 0.26953-0.23047 0.49219-0.51562 0.49219-0.28516 0-0.51562-0.21875-0.51562-0.49219 0-0.26953 0.23047-0.49219 0.51562-0.49219 0.28516 0 0.51562 0.21875 0.51562 0.49219z"/>
 <path d="m35.402 37.156c-0.007813 0-0.019532 0.003906-0.027344 0.003906-0.16797 0.023438-0.28125 0.17969-0.25781 0.34766 0.015624 0.11719 0.015624 0.23047 0.003906 0.34375-0.042969 0.42578-0.30469 0.77734-0.73438 1.0742-0.43359 0.30078-1.0312 0.53125-1.6602 0.67188-0.62891 0.14844-1.2227 0.19531-1.793 0.17969-0.082032-0.003906-0.16016 0.027344-0.21875 0.082031s-0.09375 0.13281-0.09375 0.21484c-0.003906 0.082031 0.027344 0.16016 0.082031 0.21875 0.054687 0.058593 0.13281 0.09375 0.21484 0.09375 0.61328 0.019531 1.2617-0.035157 1.9453-0.19141 0.68359-0.15625 1.3438-0.39844 1.8711-0.76562 0.52734-0.36719 0.92578-0.875 0.99609-1.5156v-0.003906c0.015625-0.15234 0.015625-0.31641-0.011719-0.49219-0.019531-0.15625-0.16016-0.26953-0.31641-0.26172z"/>
 <path d="m35.211 36.938c-0.11328 0.003906-0.21484 0.070312-0.26172 0.16797-0.078125 0.15234-0.015625 0.33594 0.13281 0.41016 0.023438 0.011719 0.066407 0.035156 0.125 0.0625 0.03125 0.011719 0.066407 0.027344 0.10156 0.046875 0 0 0.003906 0 0.007812 0.003906 0.039063 0.015625 0.078125 0.03125 0.12109 0.050782 0.039062 0.015624 0.082031 0.035156 0.125 0.050781 2.8125 1.0859 5.7578 1.3047 9.4023 1.2773 2.4688-0.023437 5.2344-0.25391 7.168-0.81641 0.078126-0.023437 0.14453-0.074218 0.18359-0.14453 0.039063-0.074219 0.050782-0.15625 0.027344-0.23438-0.046875-0.16016-0.21875-0.25391-0.37891-0.20703-1.8281 0.52734-4.5703 0.76953-7.0039 0.78906-3.6172 0.027344-6.4727-0.19141-9.1797-1.2344-0.003906 0-0.003906-0.003906-0.007812-0.003906-0.03125-0.011719-0.0625-0.023438-0.09375-0.039062-0.003907 0-0.007813 0-0.011719-0.003907-0.03125-0.011719-0.0625-0.027343-0.097657-0.042969h-0.007812c-0.035156-0.019531-0.070312-0.035156-0.10938-0.054687h-0.003906c-0.015625-0.007813-0.046875-0.023437-0.089844-0.046875-0.046875-0.023438-0.097656-0.03125-0.14844-0.03125z"/>
 <path d="m47.562 30.289c-3.5938-0.125-7.75 1.3047-10.152 2.7734l-0.082031-1.2461c-0.011719-0.18359-0.18359-0.31641-0.36719-0.27734-2.668 0.54688-4.2812 1.6562-5.1953 3.1484-0.91406 1.4961-1.1328 3.332-1.1484 5.3359 0 0.16797 0.13281 0.30469 0.30078 0.30859 0.16797 0 0.30859-0.13281 0.30859-0.30078 0.015626-1.9609 0.23828-3.6797 1.0586-5.0195 0.78125-1.2734 2.1328-2.2305 4.457-2.7734l0.089843 1.3438c0.015625 0.23438 0.28125 0.36328 0.47656 0.23438 2.1016-1.4062 6.3398-2.9023 9.875-2.8867l-0.42578 2.3398c-0.039062 0.21094 0.14844 0.39844 0.35938 0.35547 1.0977-0.21484 2.9062-0.48047 4.5859-0.55469 0.83984-0.035156 1.6484-0.023437 2.3125 0.058594 0.66406 0.085938 1.1836 0.25391 1.4297 0.45703 0.050782 0.039062 0.0625 0.066406 0.0625 0.16797 0 0.10156-0.042968 0.26172-0.12891 0.44922-0.17578 0.37891-0.53125 0.86328-0.95703 1.3398-0.42578 0.47656-0.92188 0.94531-1.3828 1.3242-0.45703 0.375-0.89453 0.66016-1.1289 0.75391-0.15625 0.0625-0.23438 0.24219-0.17188 0.39844s0.24219 0.23438 0.39844 0.17188c0.36328-0.14453 0.62891-0.54688 1.1133-0.94141 0.12109-0.097656 0.40625-0.17578 0.53125-0.28516s0.26172-0.15625 0.38281-0.27344c0.12109-0.11719 0.24609-0.23828 0.36328-0.35938 0.12109-0.12109 0.23438-0.24609 0.34766-0.37109 0.44922-0.50391 0.83594-1.0156 1.0586-1.4922 0.10938-0.23828 0.18359-0.46875 0.1875-0.70312s-0.089844-0.48438-0.28516-0.64453c-0.41406-0.33984-1.0234-0.5-1.7422-0.59375-0.71875-0.089844-1.5547-0.10156-2.418-0.0625-1.5625 0.066406-3.1055 0.30469-4.2422 0.51172l0.42188-2.3203c0.03125-0.18359-0.10156-0.35156-0.28906-0.35938z"/>
 <path d="m13.547 46.145c-0.34766 0.023438-0.72656 0.14062-1.1016 0.40625-4.1172 2.8984-5.0977 6.6328-5.7539 10.465-0.10938 0.63672 0.003906 1.1211 0.25 1.4688 0.25 0.34375 0.60156 0.53516 0.92188 0.6875l7.1875 3.3984c4.0547 1.9141 7.4141 0.64453 10.473-1.1211 0.29687-0.17188 0.65234-0.35547 0.91406-0.70703 0.26562-0.34766 0.40234-0.85156 0.3125-1.5547v-0.003906c-0.51172-3.7148-1.5234-7.0508-5.4648-9.1719l-6.8438-3.6836c-0.23828-0.12891-0.55078-0.20312-0.89453-0.18359zm0.039063 0.55469c0.24219-0.015625 0.44922 0.042969 0.59375 0.12109l6.8398 3.6797c3.7656 2.0273 4.6758 5.0938 5.1797 8.7578 0.074219 0.60547-0.03125 0.92188-0.20312 1.1523-0.17188 0.22656-0.44531 0.37891-0.75 0.55469-3.0117 1.7383-6.0938 2.9258-9.957 1.1016l-7.1875-3.3984c-0.29687-0.14062-0.55078-0.29297-0.70703-0.50781-0.15625-0.21875-0.24609-0.51562-0.15625-1.0508 0.65234-3.8047 1.5586-7.3086 5.5273-10.105 0.29688-0.20703 0.57812-0.29297 0.82031-0.30469z" fill-rule="evenodd"/>
 <path d="m22.598 55.168c-0.054687-0.003907-0.10547 0.015625-0.14844 0.046875-0.21484 0.16016-0.41406 0.33984-0.60547 0.53906-0.19141 0.19531-0.37109 0.40625-0.53516 0.63281-0.16406 0.22656-0.3125 0.46094-0.44922 0.70703-0.13281 0.24609-0.25391 0.5-0.35547 0.76172-0.10156 0.25781-0.1875 0.52344-0.25391 0.79297-0.066406 0.26562-0.11328 0.53516-0.14062 0.80469-0.011719 0.12891 0.082031 0.24609 0.21094 0.25781 0.12891 0.011718 0.24609-0.082032 0.25781-0.21094 0.023437-0.24609 0.070313-0.49219 0.12891-0.73828 0.0625-0.24609 0.14062-0.49219 0.23438-0.73438 0.097656-0.24219 0.20703-0.47656 0.33203-0.70703 0.125-0.22656 0.26562-0.44531 0.41797-0.65625 0.15234-0.20703 0.31641-0.40234 0.49219-0.58203 0.17188-0.17969 0.35938-0.34375 0.55078-0.49219 0.10156-0.078125 0.125-0.22656 0.046875-0.32812-0.042969-0.058594-0.11328-0.09375-0.18359-0.09375z"/>
 <path d="m12.992 54.02c-0.47656 0.027344-0.92578 0.21875-1.1875 0.60156-0.25781 0.38672-0.25781 0.87109-0.082032 1.3047 0.17578 0.43359 0.52344 0.83203 1 1.125 0.47656 0.29297 1 0.42969 1.4766 0.40234 0.47656-0.023437 0.92578-0.21875 1.1836-0.60156 0.26172-0.38672 0.26172-0.87109 0.085938-1.3047s-0.52344-0.83203-1-1.125-1-0.42578-1.4766-0.40234zm0.03125 0.55469c0.34766-0.019531 0.76953 0.085937 1.1523 0.32031 0.38672 0.23828 0.65234 0.55859 0.77734 0.86328 0.125 0.30469 0.11328 0.57031-0.03125 0.78125-0.14062 0.21094-0.40234 0.33984-0.75 0.35938-0.35156 0.019531-0.77344-0.085938-1.1562-0.32031-0.38672-0.23828-0.65625-0.55859-0.77734-0.86328-0.125-0.30078-0.11328-0.57031 0.027344-0.78125 0.14453-0.21094 0.40625-0.33984 0.75781-0.35938z"/>
 <path d="m15.539 49.344c-0.47656 0.023438-0.92578 0.21875-1.1836 0.60156-0.26172 0.38672-0.26172 0.87109-0.085938 1.3047s0.52734 0.83203 1 1.125c0.47656 0.29297 1 0.42578 1.4766 0.40234 0.47656-0.027344 0.92578-0.21875 1.1875-0.60156 0.25781-0.38672 0.25781-0.87109 0.082031-1.3047s-0.52344-0.83203-1-1.125c-0.47656-0.29297-1-0.42969-1.4766-0.40234zm0.03125 0.55469c0.34766-0.019532 0.76953 0.085937 1.1523 0.32031 0.38672 0.23828 0.65625 0.55859 0.77734 0.86328 0.125 0.30078 0.11328 0.57031-0.027344 0.78125-0.14453 0.21094-0.40625 0.33984-0.75781 0.35938-0.34766 0.019532-0.76953-0.085937-1.1523-0.32031-0.38672-0.23828-0.65234-0.55859-0.77734-0.86328-0.125-0.30469-0.11328-0.57031 0.03125-0.78125 0.14062-0.21094 0.40234-0.34375 0.75391-0.35937z"/>
 <path d="m56.59 35.996c-0.81641 0.042968-1.6367 0.16797-2.4766 0.36328-1.0938 0.25-1.8906 0.94922-1.9375 1.8008l-0.50781 8.5898c-0.26172 4.4844 2.2266 7.2148 4.5781 9.4375 0.22656 0.21484 0.48438 0.48438 0.86328 0.61328 0.38281 0.125 0.86328 0.066407 1.4141-0.26953l0.003906-0.003906c2.9023-1.8242 5.1367-4.582 5.6133-9.0117l0.76172-7.1055c0.050781-0.48438-0.13281-1.1406-0.69531-1.6523-0.019531-0.046874-0.050781-0.085937-0.089843-0.11719-2.6875-2.0977-5.082-2.7656-7.5273-2.6445zm0.023437 0.54688c2.3281-0.12891 4.5547 0.5 7.1641 2.5352 0.50781 0.39844 0.60938 0.92969 0.57422 1.2734l-0.76562 7.1055c-0.45703 4.2734-2.5547 6.8398-5.3555 8.6016-0.46094 0.28125-0.72656 0.28906-0.94531 0.21484-0.21875-0.074219-0.42188-0.26953-0.66016-0.48828-2.3281-2.2031-4.6523-4.7344-4.4023-9l0.50781-8.5938c0.027343-0.50391 0.57812-1.082 1.5078-1.293 0.81641-0.1875 1.6016-0.3125 2.375-0.35547z"/>
 <path d="m57.723 40.98c-0.40234-0.10938-0.80469 0.070312-1.1016 0.38672-0.29297 0.31641-0.50781 0.76953-0.60156 1.3086-0.09375 0.53516-0.046875 1.0547 0.11328 1.4805 0.16016 0.42578 0.44141 0.77344 0.84375 0.87891 0.39844 0.10938 0.80469-0.070312 1.0977-0.38672 0.29688-0.3125 0.51172-0.76953 0.60156-1.3047 0.09375-0.53516 0.050781-1.0586-0.10938-1.4844s-0.44141-0.76953-0.84375-0.87891zm-0.12109 0.45703c0.20313 0.054688 0.39844 0.25781 0.52344 0.58984 0.12109 0.33203 0.16406 0.77734 0.085938 1.2344-0.078126 0.45703-0.26563 0.83594-0.48047 1.0664-0.21484 0.23047-0.42969 0.30859-0.63281 0.25391-0.20312-0.054687-0.39844-0.25781-0.52344-0.58984-0.125-0.33203-0.16797-0.77734-0.089844-1.2383 0.082031-0.45703 0.26953-0.83594 0.48438-1.0664 0.21484-0.22656 0.42969-0.30469 0.63281-0.25z"/>
 <path d="m62.293 41.691c-0.39844-0.10938-0.80469 0.070313-1.0977 0.38672-0.29687 0.3125-0.51172 0.76953-0.60156 1.3047-0.09375 0.53516-0.050781 1.0586 0.10938 1.4844 0.16016 0.42578 0.44141 0.76953 0.84375 0.87891 0.40234 0.10547 0.80469-0.070313 1.1016-0.38672 0.29297-0.31641 0.50781-0.76953 0.60156-1.3086 0.09375-0.53516 0.046875-1.0547-0.11328-1.4805-0.16016-0.42578-0.44141-0.77344-0.84375-0.87891zm-0.12109 0.45312c0.20312 0.054688 0.39844 0.25781 0.52344 0.58984s0.16797 0.77734 0.089844 1.2383c-0.082031 0.45703-0.26953 0.83594-0.48438 1.0664-0.21484 0.22656-0.42578 0.30469-0.62891 0.25h-0.003906c-0.20312-0.054687-0.39844-0.25781-0.51953-0.58984-0.125-0.33203-0.16797-0.77734-0.089844-1.2344 0.078125-0.45703 0.26562-0.83594 0.48047-1.0664 0.21484-0.23047 0.42969-0.30859 0.63281-0.25391z"/>
 <path d="m56.543 50.207c-0.074219 0-0.14062 0.039063-0.17969 0.097657-0.078125 0.10547-0.054687 0.25 0.050781 0.32812 0.19531 0.14453 0.40625 0.26953 0.625 0.37891 0.22266 0.10547 0.44922 0.19922 0.68359 0.27344 0.23438 0.074219 0.47656 0.12891 0.71875 0.16797 0.24609 0.039063 0.49219 0.0625 0.73828 0.0625 0.24219 0 0.48828-0.011719 0.72656-0.046875h0.003906c0.23828-0.035156 0.47656-0.085938 0.70312-0.16016 0.0625-0.015625 0.11328-0.058594 0.14062-0.11328 0.027344-0.058593 0.035156-0.12109 0.015625-0.18359-0.039062-0.12109-0.17188-0.19141-0.29688-0.15234-0.20312 0.0625-0.41406 0.10938-0.62891 0.14062s-0.4375 0.042969-0.66016 0.042969-0.44531-0.019531-0.66406-0.054688c-0.22266-0.035156-0.44141-0.085937-0.65234-0.15625-0.21484-0.066406-0.42188-0.14844-0.61719-0.24609-0.19531-0.097657-0.38281-0.20703-0.55859-0.33594-0.042968-0.03125-0.097656-0.046875-0.14844-0.042969z"/>
 <path d="m52.094 37.605c-0.074219 0-0.14844 0.023437-0.20703 0.070312-0.15234 0.11719-0.17969 0.33594-0.0625 0.48828 0.015625 0.019532 0.03125 0.039063 0.042969 0.058594l0.042968 0.058594c0.058594 0.078125 0.11328 0.15625 0.17188 0.23438 0.011719 0.019531 0.03125 0.039063 0.042969 0.058594s0.03125 0.039062 0.042969 0.058593c0.011719 0.019532 0.03125 0.039063 0.042969 0.058594 0.10937 0.16016 0.48828 0.26953 0.45703 0.082032-0.019531-0.11328-0.085938-0.32813 0.015625-0.48047 0.015625-0.019531 0.003906-0.035157-0.007813-0.054688s0.039063-0.042969 0.023438-0.066406c-0.011719-0.019531-0.03125-0.042969-0.042969-0.0625-0.058594-0.085937-0.12109-0.16797-0.17969-0.25l-0.046874-0.058594c-0.015626-0.019531-0.03125-0.042969-0.046876-0.0625-0.066406-0.085937-0.16797-0.13672-0.27734-0.13672zm-21.156 2.168c-0.13281 0-0.25 0.078124-0.30859 0.19531-0.046875 0.09375-0.089844 0.1875-0.13281 0.28125-0.042969 0.09375-0.085938 0.19141-0.125 0.28516-0.64844 1.5352-1.0078 3.2227-1.0078 4.9922 0 7.0781 5.7422 12.828 12.82 12.828 0.88672 0 1.75-0.089844 2.5859-0.25781 0.83594-0.17188 1.6406-0.42188 2.4062-0.74609 0.76562-0.32422 1.4961-0.72266 2.1797-1.1836 0.68359-0.46094 1.3164-0.98438 1.8984-1.5664 0.58203-0.57812 1.1055-1.2148 1.5664-1.8984 0.11719-0.17188 0.22656-0.34375 0.33203-0.51953 0.023437-0.042969 0.054687-0.085938 0.078125-0.13281 0.023437-0.042969 0.0625-0.085937 0.078125-0.13281 0.023437-0.085938-0.10938-0.16406-0.22266-0.32422-0.054688-0.078125-0.082032-0.21094-0.16797-0.1875-0.085938 0.023438-0.16406 0.078125-0.21094 0.16016-0.023437 0.042969-0.046875 0.085938-0.074219 0.125-0.023437 0.042969-0.050781 0.085938-0.074218 0.125-0.10156 0.16797-0.20703 0.33203-0.31641 0.49219-0.4375 0.64453-0.93359 1.2461-1.4805 1.793-0.55078 0.54688-1.1523 1.043-1.7969 1.4805-0.64453 0.4375-1.3359 0.8125-2.0625 1.1172-0.72656 0.30859-1.4883 0.54297-2.2773 0.70703-0.78906 0.16016-1.6055 0.24609-2.4453 0.24609-6.7031 0-12.129-5.4297-12.125-12.137 0-1.6758 0.33984-3.2695 0.95312-4.7227 0.039063-0.089844 0.078126-0.17969 0.11719-0.26953 0.042969-0.089844 0.082031-0.17969 0.125-0.26563 0.082031-0.17187 0.011719-0.37891-0.16016-0.46484-0.046875-0.023438-0.10156-0.035157-0.15625-0.035157z"/>
 <path d="m75.949 49.648h-0.015625c-0.085938 0.003906-0.16016 0.03125-0.22266 0.054687-0.003907 0-0.003907 0-0.007813 0.003906-0.070313 0.027344-0.14062 0.070313-0.20703 0.12891-0.058594 0.050781-0.11719 0.11328-0.16406 0.18359v0.003907c-0.050781 0.074218-0.089843 0.14844-0.12109 0.23047-0.011719 0.023438-0.015626 0.050782-0.015626 0.074219l-0.035156 3.1602-0.03125 3.1562-0.035156 3.1562v0.003907 0.38281c0 0.11328 0.09375 0.20703 0.20703 0.20703 0.11719 0 0.21094-0.09375 0.21094-0.20703v-0.38281l0.03125-3.1562 0.035156-3.1562 0.03125-3.1094c0.023437-0.046874 0.042969-0.09375 0.066406-0.125v-0.003906c0.027344-0.039062 0.058594-0.074218 0.09375-0.10547h0.003907c0.027343-0.023438 0.054687-0.042969 0.089843-0.058594 0.039063-0.015625 0.074219-0.023438 0.097657-0.027344 0.046874 0.003906 0.074218 0.003906 0.085937 0.007812 0.007813 0.003907 0.011719 0.003907 0.015625 0.003907 0.03125 0.011719 0.066406 0.027343 0.10547 0.054687 0 0.003906 0.003906 0.003906 0.003906 0.003906 0.003906 0.003907 0.015625 0.011719 0.011719 0.007813 0.007812 0.007813 0.027344 0.023437 0.042968 0.039063 0.011719 0.011718 0.015626 0.015624 0.019532 0.019531 0.066406 0.089843 0.19922 0.10938 0.28906 0.042969 0.09375-0.070313 0.11328-0.20313 0.042969-0.29297-0.023437-0.03125-0.046875-0.050781-0.058594-0.066407-0.007812-0.003906-0.015625-0.011718-0.023437-0.019531 0 0-0.003906-0.003906-0.019532-0.015625-0.023437-0.027344-0.046874-0.042968-0.066406-0.054687v-0.003907c-0.070312-0.046874-0.14453-0.085937-0.22656-0.10937-0.09375-0.035157-0.17969-0.03125-0.23438-0.03125z"/>
 <path d="m88.367 25.656h-0.023438l-8.1016 0.80078c-0.097657 0.007813-0.17578 0.085938-0.1875 0.18359l-5.1562 46.402c-0.011719 0.10938 0.0625 0.20703 0.16797 0.23047l8.043 1.5938c0.11719 0.023437 0.23438-0.058594 0.24609-0.18359l5.2188-48.797c0.011719-0.12109-0.082031-0.23047-0.20703-0.23047zm-0.23438 0.44141-5.168 48.316-7.6289-1.5117 5.1172-46.047z"/>
 <path d="m89.734 24.262c-0.007813 0-0.015625 0-0.019531 0.003906l-10.586 1.0391c-0.097656 0.011718-0.17578 0.089843-0.1875 0.1875l-5.3906 48.594c-0.011719 0.10937 0.0625 0.20703 0.16797 0.23047l10.504 2.082c0.12109 0.023437 0.23438-0.058594 0.24609-0.18359l5.4727-51.723c0.011719-0.12109-0.085937-0.22656-0.20703-0.23047zm-0.23438 0.44141-5.4219 51.242-10.09-2.0039 5.3477-48.238z"/>
 <path d="m75.145 74.18c-0.11719 0-0.21094 0.09375-0.21094 0.20703l-0.015625 4.3711-3.3242 0.98047c-0.09375 0.027344-0.15625 0.11719-0.14844 0.21484l0.085938 1.2578c0.011719 0.12891 0.13281 0.21875 0.26172 0.1875l7.6367-1.9531c0.097656-0.023437 0.16406-0.11719 0.15625-0.21875l-0.085938-1.043c-0.011719-0.12109-0.125-0.20703-0.24609-0.1875l-2.6172 0.47656 0.027343-3.8203c0-0.11328-0.089843-0.20703-0.20703-0.21094-0.11328 0-0.20703 0.09375-0.20703 0.20703l-0.03125 4.0742c0 0.12891 0.11719 0.23047 0.24609 0.20703l2.6367-0.48047 0.054688 0.63672-7.2266 1.8477-0.058594-0.84375 3.3125-0.97266c0.089844-0.027344 0.14844-0.10938 0.14844-0.20313l0.019531-4.5234c0-0.11719-0.09375-0.21094-0.20703-0.21094z"/>
 <path d="m87.914 50.371c-0.32422 0.019531-0.59766 0.26172-0.73047 0.60547-0.007813 0.023438-0.011719 0.042969-0.011719 0.066407l-1.6602 29.312-3.3164 0.98828c-0.09375 0.027344-0.15234 0.11719-0.14844 0.21484l0.089844 1.2578c0.007812 0.12891 0.13281 0.21875 0.25781 0.1875l7.6406-1.9531c0.097656-0.023437 0.16406-0.11719 0.15625-0.21875l-0.089844-1.0391c-0.007812-0.125-0.12109-0.21094-0.24609-0.19141l-2.6016 0.47656 1.5156-29.004v-0.011719c0-0.03125-0.007812-0.0625-0.019531-0.089844-0.19531-0.40234-0.51172-0.62109-0.83594-0.60156zm0.023438 0.41406c0.12109-0.007812 0.27344 0.085938 0.41016 0.34766l-1.5234 29.188c-0.007813 0.13281 0.11328 0.23828 0.24219 0.21484l2.6406-0.48047 0.050781 0.63672-7.2227 1.8477-0.058594-0.84375 3.2969-0.98047c0.082031-0.027344 0.14062-0.10156 0.14844-0.19141l1.6602-29.406c0.089844-0.21484 0.23438-0.32422 0.35547-0.33203z"/>
 <path d="m84.734 50.344c-0.027344 0-0.054687 0.015625-0.066406 0.039062l-8.1914 18.117c-0.015624 0.035156 0 0.078125 0.035157 0.09375 0.035156 0.015625 0.078125 0 0.09375-0.035156l8.1914-18.117c0.015625-0.035156 0-0.074218-0.035156-0.089844-0.007813-0.007812-0.019531-0.007812-0.027344-0.007812z"/>
 <path d="m86.902 30.379c-0.03125 0-0.054688 0.015625-0.066406 0.039063l-8.1016 18.379c-0.015625 0.035156 0 0.074219 0.035156 0.089844 0.035157 0.015625 0.074219 0 0.089844-0.035157l8.1055-18.375c0.015625-0.035156 0-0.078124-0.035156-0.09375-0.011719-0.003906-0.019532-0.003906-0.027344-0.003906z"/>
 <path d="m41.871 59.703c-0.14062 0.003906-0.25781 0.11328-0.27344 0.25391l-1.2031 12.992c-0.007812 0.074219 0.015625 0.14453 0.0625 0.20312s0.11328 0.09375 0.1875 0.097656c0.074219 0.007812 0.14453-0.015625 0.20312-0.0625 0.054688-0.046875 0.09375-0.11328 0.097656-0.1875l1.207-12.992c0.011718-0.15234-0.097656-0.28516-0.25-0.30078-0.011719 0-0.019532-0.003906-0.03125-0.003906z"/>
 <path d="m40.465 74.152c-0.13672 0.003906-0.24609 0.10156-0.26953 0.23438-0.47656 2.9023-1.1289 6.0117-1.1289 6.0117-0.027344 0.15234 0.066406 0.29687 0.21484 0.32812 0.074219 0.015626 0.14844 0.003907 0.21094-0.039062 0.0625-0.039062 0.10547-0.10156 0.12109-0.17578 0 0 0.59375-2.918 1.0625-5.668 1.293 0.57031 2.0625 1.0859 2.3477 1.4727 0.16016 0.21094 0.19922 0.37109 0.19141 0.50781-0.007813 0.14062-0.070313 0.27344-0.1875 0.41406-0.23047 0.28125-0.68359 0.53516-1.0742 0.70703-0.39062 0.16797-0.71094 0.25391-0.71094 0.25391-0.070313 0.019531-0.13281 0.066406-0.16797 0.12891-0.039063 0.0625-0.046875 0.14062-0.027344 0.21094 0.039063 0.14844 0.19141 0.23438 0.33984 0.19531 0 0 0.35547-0.09375 0.78516-0.28125 0.42969-0.18359 0.94531-0.44922 1.2852-0.85938 0.16797-0.20312 0.29688-0.45312 0.3125-0.73828 0.015625-0.28125-0.085937-0.58203-0.30078-0.87109-0.42969-0.57812-1.3047-1.1562-2.8945-1.8125-0.035157-0.011719-0.070313-0.019531-0.10938-0.019531z"/>
 <path d="m55.688 57.512c-0.03125 0-0.0625 0.003906-0.09375 0.015625-3.6758 1.1953-7.5469 2.0195-11.75 2.2188-0.074219 0.003906-0.14453 0.035156-0.19531 0.089844-0.046876 0.054687-0.074219 0.12891-0.070313 0.20312 0.003906 0.074219 0.035156 0.14063 0.089844 0.19141 0.054687 0.050781 0.12891 0.074219 0.19922 0.070312 4.2617-0.19922 8.1836-1.0391 11.902-2.2461 0.14453-0.046876 0.22266-0.20313 0.17578-0.34766-0.035156-0.11328-0.14062-0.19141-0.25781-0.19531z"/>
 <path d="m39.844 59.836c-0.011719 0.003906-0.019531 0.003906-0.03125 0.007812-3.8477 0.64844-7.6953 0.80859-11.547 0.56641-0.15234-0.011718-0.28516 0.10547-0.29297 0.25781-0.007812 0.15234 0.10547 0.28516 0.25781 0.29688 3.8906 0.24219 7.7812 0.085937 11.672-0.57422 0.074218-0.011719 0.14062-0.054687 0.18359-0.11328 0.039062-0.0625 0.058593-0.13672 0.046874-0.20703-0.023437-0.14062-0.14844-0.23828-0.28906-0.23437z"/>
</svg>
