<?xml version="1.0" encoding="UTF-8"?>
<svg id="Layer_1" xmlns="http://www.w3.org/2000/svg" version="1.1" viewBox="0 0 91.25 93.66">
  <!-- Generator: Adobe Illustrator 29.4.0, SVG Export Plug-In . SVG Version: 2.1.0 Build 152)  -->
  <path d="M85.93,31.74c-2.55,0-4.61,2.06-4.61,4.61v31.53c-.28.1-.57.18-.85.31-.08.04-4.41,2.11-11.41,4.05-2.23-1.56-5.05-2.26-7.93-1.7-10.58,2.05-20.85,2.08-31.41.07-2.85-.54-5.65.15-7.86,1.68-6.97-1.93-11.29-4.01-11.41-4.08-.26-.13-.53-.21-.79-.3v-31.57c0-2.55-2.07-4.61-4.61-4.61S.43,33.81.43,36.35v37.68c0,.22.03.43.06.64.1,2.45,1.46,4.77,3.8,5.94.4.2,5.78,2.83,14.37,5.16,1.44,2.63,4,4.63,7.17,5.23,6.5,1.24,13.02,1.86,19.39,1.86s13.2-.65,19.85-1.94c3.14-.61,5.68-2.57,7.11-5.17,8.57-2.32,13.97-4.93,14.37-5.13,2.19-1.07,3.54-3.15,3.81-5.4.1-.39.18-.78.18-1.2v-37.68c0-2.55-2.07-4.61-4.62-4.61ZM16.22,34.05v29.09c.92.36,2.03.77,3.37,1.21,3.58-1.81,7.76-2.43,11.76-1.67,9.63,1.84,18.69,1.81,28.36-.06,4.04-.78,8.21-.17,11.79,1.64,1.23-.41,2.27-.79,3.15-1.13l.02-29.08c0-5.2,3.85-9.48,8.84-10.23v-14.07c0-2.55-1.93-3.75-4.61-4.61,0,0-14.63-4.23-33.17-4.23S11.99,5.14,11.99,5.14c-2.62.81-4.61,2.07-4.61,4.61v14.07c4.99.75,8.84,5.03,8.84,10.23Z"/>
</svg>