<?xml version="1.0" encoding="UTF-8"?>
<svg xmlns="http://www.w3.org/2000/svg" version="1.1" viewBox="0 0 50 50">

  <!-- Generator: Adobe Illustrator 28.6.0, SVG Export Plug-In . SVG Version: 1.2.0 Build 709)  -->
  <g>
    <g id="Layer_1">
      <path class="cls-1" d="M14.2,1.8h21.5c4.7,0,8.5,3.8,8.5,8.5v5.8s-5.5-.6-5.5,4.5v9.7H11.2v-9.7c0-5.1-5.5-5.1-5.5-5.1v-5.2C5.7,5.6,9.5,1.8,14.2,1.8ZM9.5,22.3c0,0,0-.1,0-.2,0-2.6-2.1-4.7-4.7-4.7S.1,19.5.1,22.1s1.3,3.8,3.1,4.4c.3,0,.5.3.5.6v12.9c0,.3.3.6.6.6h42c.3,0,.6-.3.6-.6v-13.2c0-.2.2-.5.4-.6,1.5-.8,2.5-2.4,2.5-4.2,0-2.6-2.1-4.7-4.7-4.7s-4.7,2.1-4.7,4.7,0,.2,0,.3v9.1c0,.3-.3.6-.6.6H10.2c-.3,0-.6-.3-.6-.6v-9.3ZM10.9,42.7l-1.6,5.1c0,.3-.3.4-.6.4h-1.9c-.3,0-.6-.3-.6-.6v-5.1c0-.3.3-.6.6-.6h3.5c.4,0,.7.4.6.8h0ZM39.8,42.7l1.6,5.1c0,.3.3.4.6.4h1.9c.3,0,.6-.3.6-.6v-5.1c0-.3-.3-.6-.6-.6h-3.5c-.4,0-.7.4-.6.8h0Z"/>
    </g>
  </g>
</svg>