<?xml version="1.0" encoding="UTF-8"?>
<svg xmlns="http://www.w3.org/2000/svg" version="1.1" viewBox="0 0 50 50">
  <polygon class="cls-1" points="24.6 5.3 24.6 5.3 24.6 5.3 24.6 5.3 24.6 5.3"/>
  <path class="cls-1" d="M25.7,5.6c.4.3.7.6,1.1,1.1.3.4.6.8.8,1.2-.1.3-.1.6-.1.9v.2c0,.6,0,1.3-.4,1.9-.1.2-.3.4-.6.6-.3.2-.6.4-.7.8,0,.1,0,.2,0,.4h0c-.2.1-.3.2-.5.3-.2,0-.3.1-.5.1,0,0,.1-.2.2-.3,0,0,.1-.1.2-.2.1-.1.3-.3.4-.4.2-.2.3-.6.3-.9,0,0,0-.2,0-.3,0,0,0,0,0,0,.1,0,.2,0,.3,0,.1,0,.2-.2.2-.4,0-.2,0-.3-.2-.4-.2-.2-.5-.2-.8,0-.2.2-.3.4-.3.6,0,0,0,0,0,0,0,0,0,0-.1,0-.1,0-.2,0-.3,0,0,0,0,0-.1,0,0,0,0,0,0,0,0-.1,0-.3,0-.4,0,0,0,0,0-.1,0,0,0,0,.1,0,.3,0,.4-.4.4-.7,0-.2,0-.4-.2-.5,0,0-.2-.1-.3-.1-.1,0-.2,0-.3.2h0c-.2.2-.3.3-.3.5,0,0,0,.1,0,.2,0,0,0,.2,0,.3,0,0,0-.2-.2-.2,0,0,0,0,0,0-.1-.1-.2-.2-.4-.1-.2,0-.3.1-.4.2,0,0,0,0,0,.1-.1.1-.3.3-.3.5,0,0-.2,0-.2.1,0,0,0,0,0,0,0,0-.1.2-.1.4,0,0,0,.2.2.2,0,0,0,0,.1.1,0,.1,0,.2-.1.4h0c-.1,0-.3-.1-.4-.1-.2,0-.4.2-.5.4,0,.3.2.4.3.5,0,0,0,0,0,0,0,.1,0,.2,0,.3,0,.1,0,.2.1.3-.2-.2-.4-.4-.5-.6-.1-.4,0-.8.2-1.2h0c.1-.3.3-.5.3-.7,0-.2.1-.5.1-.8,0-.4,0-.8.3-1.2.2-.4.5-.6.8-1,.3-.3.5-.6.8-.9,0-.1.1-.2.2-.3.1-.3.2-.5.4-.6,0,0,.2,0,.3,0,.3,0,.6.1.8.3Z"/>
  <path class="cls-1" d="M21.8,16.8s0,0,0,0c0,0,0,0,0,0h0c-.1,0-.3,0-.5,0h0c-.4,0-.9,0-1.4-.2.4-.4,1-.5,1.3-.6.3,0,.6,0,.9,0-.1.1-.2.2-.2.4,0,0,0,.1,0,.2,0,0,0,0,0,0Z"/>
  <path class="cls-1" d="M22.5,13.3s.1,0,.2,0,0,0,.1,0c.2,0,.5.1.7.2.1,0,.2,0,.3.1.4.2.8.2,1.2.1.3,0,.6-.2.9-.4h.2c.2-.2.6-.4.8-.4,0,0,0,0,0,0h0c0,.1-.2.2-.3.3-.6.5-1.4,1.1-2.3,1.2-.4-.1-.7-.2-1.1-.4-.4-.2-.7-.4-.8-.6,0-.1,0-.2,0-.2Z"/>
  <path class="cls-1" d="M26.9,15.4c-.3,0-.7,0-1.1-.1-.2,0-.4-.2-.6-.3.5-.2.9-.5,1.4-.8,0,0,0,0,0,0,.5.2,1.1.2,1.7.2.1,0,.3.1.4.2-.3.2-.5.4-.8.5-.4.2-.7.3-1,.4Z"/>
  <path class="cls-1" d="M23.3,10.3c0,0,0-.1,0-.2,0,0,0,0,0,0,0,0,0,0-.1.1Z"/>
  <path class="cls-1" d="M24,10.1s0,0,0,0c0,0,0,0,0,0,0,0,0,0,0,0Z"/>
  <path class="cls-1" d="M18.7,12.1c.1.1.3.3.4.5h.1c.2.4.4.6.7.9.5.5,1.4.9,2.2.7.2.2.4.3.6.5.3.2.6.3,1,.4-.1.1-.3.2-.4.3h0c-.4.1-.9.1-1.4.1-.8,0-1.6,0-2.3.5-.2.1-.3.3-.5.5-.6-.3-1.2-.7-1.7-1.2-.3-.3-.6-.7-.9-1.1-.1-.2-.2-.4-.3-.6,0-.2,0-.4,0-.6,0-.3.2-.5.2-.7.1-.2.2-.4.4-.5.4-.3,1-.2,1.5,0h0c.1.1.2.3.4.4Z"/>
  <path class="cls-1" d="M22.4,16.7s0,0,.2-.1c0,0,.1,0,.2-.1,0,0,.1,0,.2-.1.5-.3,1-.6,1.5-1,.8.4,1.6.8,2.5.7.4,0,.9-.2,1.3-.5.2-.1.4-.2.6-.4,0,0,.2-.1.3-.2h0c0-.1.2-.2.2-.2.6-.1,1.2-.3,1.7-.5,0,1.5-1.7,2.4-2.2,2.6-1.2.5-2.6.7-4.2.4-.7,0-1.4-.3-2.3-.5,0,0,0,0,0,0,0,0,0-.1,0-.1Z"/>
  <path class="cls-1" d="M30.2,13.9c-.2,0-.5.1-.7.2,0,0,0,0-.1-.1.4-.2.7-.4,1-.6l.2-.2c.2-.2.5-.3.8-.4.2,0,.4-.1.6-.2h0c.1,0,.3.2.3.3,0,.1-.1.3-.4.4-.2.1-.5.2-.8.4-.3.1-.6.2-.9.3Z"/>
  <path class="cls-1" d="M31.8,11.9c-.1,0-.3,0-.4,0-.3,0-.5.2-.8.4-.2.1-.4.3-.6.4-.3.2-.6.4-.9.6-.5.3-1.1.3-1.7.2,0,0,.1-.1.2-.2.2-.2.3-.5.1-.8-.3-.4-.8-.4-1.1-.3,0,0,.1,0,.2-.1.2-.1.5-.3.7-.6.4-.5.6-1.1.6-1.9,0-.2,0-.4,0-.7,0-.1,0-.3,0-.4,0-.2,0-.4.2-.5,0,0,.2,0,.3,0,.1,0,.3,0,.4,0,.3,0,.6,0,.9.2.6.2,1.1.4,1.5.8.5.5.8,1,1.1,1.5.1.2.3.5.2.7,0,.2-.3.3-.4.4-.2,0-.4.1-.5.2Z"/>
  <path class="cls-1" d="M23.6,5.6c-.2.4-.4.7-.7,1l-.2.2c-.2.3-.5.5-.7.8-.1.2-.2.4-.3.6-.1.3-.1.6-.2.8v.2c0,.2,0,.3,0,.5,0-.5,0-1.1,0-1.7,0-.3,0-.5,0-.8,0-.1,0-.2,0-.4,0-.4,0-.7.2-1,.2-.3.5-.5.9-.6.2,0,.4,0,.6,0s.3,0,.4,0c0,.1-.1.2-.2.3Z"/>
  <path class="cls-1" d="M20.9,6.8h0c0,.5,0,.8,0,1.2,0,.2,0,.5,0,.7,0,.8,0,1.4.3,1.9-.3.5-.3,1-.2,1.5.2.5.5.9.9,1.1h0s0,0,0,.1c-.5.1-1-.2-1.3-.5-.3-.2-.5-.5-.7-.8-.2-.3-.4-.5-.7-.8-.2-.2-.4-.5-.5-.8,0-.3,0-.5.1-.8h0c.1-.2.3-.4.4-.5,0-.1.2-.2.3-.3.2-.3.4-.5.5-.8v-.2c.4-.4.7-.9,1.1-1.2,0,0,0,0,0,0Z"/>
  <path class="cls-1" d="M18.2,9.3s0,0,0,0c-.3.4-.4.8-.3,1.2,0,.1,0,.2,0,.3-.3,0-.7,0-1.1.1-.6.2-.8.8-1,1.2-.2.5-.4,1.1-.2,1.7.1.3.3.5.4.7.2.2.3.4.5.6.8.9,1.6,1.5,2.5,1.9.5.2,1.1.4,1.6.4.3,0,.6,0,.8,0,.2,0,.4,0,.7-.2,1.1.3,2.5.7,4,.7s.5,0,.7,0c1.7-.1,3.2-.8,4.1-1.7.6-.7,1-1.5.9-2.3.2,0,.4-.2.6-.3.4-.3.6-.6.6-1,0-.2,0-.3-.2-.5.2-.1.3-.2.5-.4.2-.3.3-.7.1-1.1h0c-.1-.3-.3-.6-.5-.9h0c0-.2-.2-.3-.3-.5,8.3.7,14,2.5,15.1,4.4,0,0-.1.2-.1.4,0,.3,0,.7,0,1-1.6,2.3-10.5,4.6-22.7,4.6S1.9,16.9,1.9,14.4s6.4-4.3,16.2-5.1Z"/>
  <path class="cls-1" d="M9.9,44.6c0,.1,0,0,0,.1-.1,0-.3,0-.5,0-.4,0-.8,0-1.2,0-.2,0-.5,0-.6-.2,0-.1,0-.3,0-.5,0-.2,0-.4,0-.7,0-.8,0-1.7,0-2.5.4,0,.8.1,1.3.4.4.2.7.4,1.1.7,0,.9,0,1.8,0,2.7Z"/>
  <path class="cls-1" d="M16.5,43c0,.1,0,.2,0,.3,0,0,0,0,0,0,0,0,0,0,0,0-.1,0-.2,0-.4,0-.3,0-.6.1-.9.1,0,0,0,0,0,0,0-.6,0-1.2,0-1.7,0,0,0,0,0,0,.4-.2.8-.4,1.2-.5.1,0,.2,0,.3,0,0,.5,0,1,0,1.5,0,0,0,.1,0,.1,0,0,0,.2,0,.3Z"/>
  <path class="cls-1" d="M35.5,43.2c-.3,0-.4,0-.7,0,0,0,0,0,0,0,0,0,0,0,0,0,0,0,0,0,0,0,0,0,0,0,0,0,0,0,0,0,0,0,0,0,0,0,0,0,0,0,0,0,0-.1,0,0,0,0,0,0,0,0,0,0,0,0,0,0,0,0,0-.1,0-.1,0-.3,0-.4,0,0,0-.1,0-.2.7,0,1.4,0,2.1,0,0,.4,0,.9,0,1.3,0,0,0,0,0,0-.3,0-.6,0-.9,0Z"/>
  <path class="cls-1" d="M43.7,42.5c0,.4,0,.7,0,1.1,0,0,0,.1,0,.2,0,0,0,0,0,0,0,0,0,0,0,0,0,0,0,0,0,0-.3,0-.6,0-.9.1-.3,0-.7.1-1,0,0,0,0,0,0,0,0,0,0,0,0,0,0,0,0,0,0,0,0,0,0,0,0,0,0,0,0,0,0,0,0,0,0,0,0,0,0-.3,0-.7,0-1,0-.7,0-1.4,0-2.2.6.1,1.3.1,1.8,0,0,.6,0,1.2.1,1.8Z"/>
  <path class="cls-1" d="M49.3,35c-.1.7-.4,1.6-1,2-.7.4-1.5.1-2.2.4-.6.3-.9.8-1.2,1.2-.5.7-1.2,1.1-2.1,1.1-.7,0-1.4-.4-2.2-.4-.2,0-.4,0-.6,0-.2-3.7-.8-7.4-2-11-.2-.7-1.3-.4-1.1.3,1.1,3.6,1.8,7.3,1.9,11-.1,0-.2,0-.3.2-1.6.8-2.9,1.4-4.7.9-.8-.2-1.6-.5-2.5-.8,0,0,0,0,0,0-1-5-1.3-10.2-.9-15.3,0-.7-1-.7-1.1,0-.4,5,0,10.1.9,15.1-.1,0-.3,0-.4,0-1.5,0-2.7.8-4,1.4-1.3.6-2.8.8-4.3.4-1.1-2.5-2.2-5.2-1.6-7.9.1-.7-.9-1-1.1-.3-.6,2.7.2,5.2,1.2,7.7-1-.5-1.9-1.1-3.1-1-1.4,0-2.4,1-3.7,1.4-1.5.5-2.8-.5-4.1-1.1,0,0,0,0-.1,0,.8-2,1.2-4.2.9-6.4-.3-2.3-1.4-4.8,0-7,.4-.6-.6-1.2-1-.6-1.2,2-.6,4.3-.2,6.4.5,2.4.3,4.9-.7,7.2-.9-.2-1.9-.1-2.9,0-1.7.3-3.1.2-4.1-1.4-1-1.7-.6-3.7-.3-5.5.4-1.9.7-3.8,1-5.7.5-3.5.6-7,.5-10.6,3.7,2.7,13.4,4.1,22.6,4.1s19.3-1.5,22.8-4.2c.2,2.6.3,5.3.5,7.9,0,.8,0,1.6.1,2.4,0,.9.4,1.7.6,2.6.4,1.7.6,3.6.3,5.4h0Z"/>
</svg>