<?xml version="1.0" encoding="utf-8"?>
<!-- Generator: Adobe Illustrator 18.0.0, SVG Export Plug-In . SVG Version: 6.00 Build 0)  -->
<!DOCTYPE svg PUBLIC "-//W3C//DTD SVG 1.1//EN" "http://www.w3.org/Graphics/SVG/1.1/DTD/svg11.dtd">
<svg version="1.1" id="Layer_1" xmlns="http://www.w3.org/2000/svg" xmlns:xlink="http://www.w3.org/1999/xlink" x="0px" y="0px"
	 width="192.9px" height="192.9px" viewBox="0 0 192.9 192.9" enable-background="new 0 0 192.9 192.9" xml:space="preserve">
<g>
	<path fill="#010101" d="M192.9,183.3l-65.7-65.7c10.3-12.3,16.4-28.4,16.4-45.8C143.7,32.2,111.5,0,71.8,0S0,32.2,0,71.8
		s32.2,71.8,71.8,71.8c17.4,0,33.2-6.2,45.8-16.4l65.7,65.7L192.9,183.3z M13.7,71.8c0-32.2,26-58.2,58.2-58.2s58.2,26,58.2,58.2
		S104,130,71.8,130S13.7,104,13.7,71.8z M47.9,65h47.9v13.7H47.9V65z"/>
</g>
</svg>
