<?xml version="1.0" encoding="UTF-8"?>
<svg xmlns="http://www.w3.org/2000/svg" version="1.1" viewBox="0 0 50 50">

  <!-- Generator: Adobe Illustrator 28.6.0, SVG Export Plug-In . SVG Version: 1.2.0 Build 709)  -->
  <g>
    <g id="Layer_1">
      <path class="cls-1" d="M25.4.3c-1.4,4.1-2.5,8.2-3.2,12.3.9,0,1.9,0,2.8,0,1.4,0,2.7,0,4.1.2.4-3.6,1.4-7.4,3-11.3-2.1-.6-4.4-1-6.8-1h0ZM22,13.7c-.6,3.8-.9,7.6-.9,11.3,0,8.2,1.4,16.5,4.3,24.7,6.7,0,12.7-2.8,17.1-7.2.2-.2.5-.5.7-.7-7.1-5.4-11.5-11.4-13.3-18.2-.8-3.1-1.1-6.4-.8-9.8-1.3-.1-2.7-.2-4-.2s-2,0-3,.1h0ZM24.3,49.7c-2.8-8.2-4.2-16.4-4.2-24.7s.3-7.5.9-11.2c-2.1.2-4.2.6-6.4,1.2-.2,2.5-1.2,5.2-3.2,8.1-2.1,3.2-5.3,6.6-9.6,10.3,1.2,3.4,3.2,6.5,5.8,9,4.3,4.3,10.2,7,16.7,7.2h0ZM21.1,12.7c.7-4.1,1.8-8.2,3.2-12.3-5.5.2-10.6,2.1-14.6,5.4,1,.7,1.8,1.4,2.5,2.2,1.6,1.8,2.4,3.8,2.5,6,2.2-.6,4.3-1,6.5-1.2h0ZM33.2,1.7c-1.6,3.9-2.6,7.6-3,11.1,6.3.8,12.7,3.2,19,7-1-4.7-3.4-9-6.7-12.3-2.6-2.6-5.8-4.6-9.3-5.9h0ZM30.1,13.9c-.3,3.3,0,6.4.8,9.4,1.8,6.6,6.1,12.5,13,17.7,3.6-4.3,5.8-9.9,5.8-15.9s0-2.5-.3-3.8c-6.5-4.1-12.9-6.5-19.3-7.4h0ZM1.4,32.3c4-3.5,7-6.8,9-9.8,1.8-2.6,2.8-5,3-7.2-4.3,1.3-8.6,3.3-12.9,6-.2,1.2-.3,2.5-.3,3.8,0,2.5.4,5,1.1,7.3h0ZM13.5,14.1c0-2-.8-3.9-2.2-5.5-.7-.8-1.5-1.5-2.5-2.2-.4.4-.8.8-1.2,1.2-3.3,3.3-5.7,7.5-6.7,12.3,4.2-2.6,8.4-4.5,12.7-5.7h0Z"/>
    </g>
  </g>
</svg>