<?xml version="1.0" encoding="UTF-8"?>
<svg xmlns="http://www.w3.org/2000/svg" version="1.1" viewBox="0 0 50 50">

  <g>
    <g id="Layer_1">
      <path class="cls-1" d="M28.7,29.4h-7.2c-4.5,0-8.1,3.6-8.1,8.1v9.7c6.9,3.8,16.5,3.8,23.3,0v-9.7c0-4.5-3.6-8.1-8.1-8.1Z"/>
      <path class="cls-1" d="M25.1-.2C-.1,0-9.3,32.7,11.6,46.1v-8.6c0-5,3.7-9.1,8.5-9.8-6-4.6-2.7-14.4,4.9-14.5,7.7,0,11,9.8,4.9,14.5,4.8.7,8.5,4.8,8.5,9.8v8.6C59.5,32.7,50.3,0,25.1-.2h0Z"/>
      <path class="cls-1" d="M31.4,21.3c0-3.5-2.8-6.3-6.3-6.3-8.3.3-8.3,12.2,0,12.6,3.5,0,6.3-2.8,6.3-6.3h0Z"/>
    </g>
  </g>
</svg>